<svg xmlns="http://www.w3.org/2000/svg" width="912" height="1886" viewBox="0 0 912 1886">
<rect width="100%" height="100%" fill="#080e14"/>
<text x="18" y="28" fill="#96dcff" font-family="Menlo, monospace" font-size="18">Viden reference screenshots 2 / 4</text>
<rect x="18" y="44" width="280" height="164" fill="#0d1720" stroke="#0096d2" stroke-width="1"/>
<image href="/Users/wiki/Documents/GitHub/viden/docs/viden-design/Viden/screenshots/02-tui-check.png" x="18" y="44" width="280" height="164" preserveAspectRatio="xMidYMid meet"/>
<text x="22" y="225" fill="#cddceb" font-family="Menlo, monospace" font-size="13">02-tui-check.png</text>
<rect x="316" y="44" width="280" height="164" fill="#0d1720" stroke="#0096d2" stroke-width="1"/>
<image href="/Users/wiki/Documents/GitHub/viden/docs/viden-design/Viden/screenshots/02-viden-aurora.png" x="316" y="44" width="280" height="164" preserveAspectRatio="xMidYMid meet"/>
<text x="320" y="225" fill="#cddceb" font-family="Menlo, monospace" font-size="13">02-viden-aurora.png</text>
<rect x="614" y="44" width="280" height="164" fill="#0d1720" stroke="#0096d2" stroke-width="1"/>
<image href="/Users/wiki/Documents/GitHub/viden/docs/viden-design/Viden/screenshots/a-approval.png" x="614" y="44" width="280" height="164" preserveAspectRatio="xMidYMid meet"/>
<text x="618" y="225" fill="#cddceb" font-family="Menlo, monospace" font-size="13">a-approval.png</text>
<rect x="18" y="272" width="280" height="164" fill="#0d1720" stroke="#0096d2" stroke-width="1"/>
<image href="/Users/wiki/Documents/GitHub/viden/docs/viden-design/Viden/screenshots/a-cockpit.png" x="18" y="272" width="280" height="164" preserveAspectRatio="xMidYMid meet"/>
<text x="22" y="453" fill="#cddceb" font-family="Menlo, monospace" font-size="13">a-cockpit.png</text>
<rect x="316" y="272" width="280" height="164" fill="#0d1720" stroke="#0096d2" stroke-width="1"/>
<image href="/Users/wiki/Documents/GitHub/viden/docs/viden-design/Viden/screenshots/a-cockpit2.png" x="316" y="272" width="280" height="164" preserveAspectRatio="xMidYMid meet"/>
<text x="320" y="453" fill="#cddceb" font-family="Menlo, monospace" font-size="13">a-cockpit2.png</text>
<rect x="614" y="272" width="280" height="164" fill="#0d1720" stroke="#0096d2" stroke-width="1"/>
<image href="/Users/wiki/Documents/GitHub/viden/docs/viden-design/Viden/screenshots/a-ticker.png" x="614" y="272" width="280" height="164" preserveAspectRatio="xMidYMid meet"/>
<text x="618" y="453" fill="#cddceb" font-family="Menlo, monospace" font-size="13">a-ticker.png</text>
<rect x="18" y="500" width="280" height="164" fill="#0d1720" stroke="#0096d2" stroke-width="1"/>
<image href="/Users/wiki/Documents/GitHub/viden/docs/viden-design/Viden/screenshots/a-tokens.png" x="18" y="500" width="280" height="164" preserveAspectRatio="xMidYMid meet"/>
<text x="22" y="681" fill="#cddceb" font-family="Menlo, monospace" font-size="13">a-tokens.png</text>
<rect x="316" y="500" width="280" height="164" fill="#0d1720" stroke="#0096d2" stroke-width="1"/>
<image href="/Users/wiki/Documents/GitHub/viden/docs/viden-design/Viden/screenshots/a-welcome.png" x="316" y="500" width="280" height="164" preserveAspectRatio="xMidYMid meet"/>
<text x="320" y="681" fill="#cddceb" font-family="Menlo, monospace" font-size="13">a-welcome.png</text>
<rect x="614" y="500" width="280" height="164" fill="#0d1720" stroke="#0096d2" stroke-width="1"/>
<image href="/Users/wiki/Documents/GitHub/viden/docs/viden-design/Viden/screenshots/addmenu-fix.png" x="614" y="500" width="280" height="164" preserveAspectRatio="xMidYMid meet"/>
<text x="618" y="681" fill="#cddceb" font-family="Menlo, monospace" font-size="13">addmenu-fix.png</text>
<rect x="18" y="728" width="280" height="164" fill="#0d1720" stroke="#0096d2" stroke-width="1"/>
<image href="/Users/wiki/Documents/GitHub/viden/docs/viden-design/Viden/screenshots/addmenu-open.png" x="18" y="728" width="280" height="164" preserveAspectRatio="xMidYMid meet"/>
<text x="22" y="909" fill="#cddceb" font-family="Menlo, monospace" font-size="13">addmenu-open.png</text>
<rect x="316" y="728" width="280" height="164" fill="#0d1720" stroke="#0096d2" stroke-width="1"/>
<image href="/Users/wiki/Documents/GitHub/viden/docs/viden-design/Viden/screenshots/addmenu-open2.png" x="316" y="728" width="280" height="164" preserveAspectRatio="xMidYMid meet"/>
<text x="320" y="909" fill="#cddceb" font-family="Menlo, monospace" font-size="13">addmenu-open2.png</text>
<rect x="614" y="728" width="280" height="164" fill="#0d1720" stroke="#0096d2" stroke-width="1"/>
<image href="/Users/wiki/Documents/GitHub/viden/docs/viden-design/Viden/screenshots/addproj.png" x="614" y="728" width="280" height="164" preserveAspectRatio="xMidYMid meet"/>
<text x="618" y="909" fill="#cddceb" font-family="Menlo, monospace" font-size="13">addproj.png</text>
<rect x="18" y="956" width="280" height="164" fill="#0d1720" stroke="#0096d2" stroke-width="1"/>
<image href="/Users/wiki/Documents/GitHub/viden/docs/viden-design/Viden/screenshots/approval-acts.png" x="18" y="956" width="280" height="164" preserveAspectRatio="xMidYMid meet"/>
<text x="22" y="1137" fill="#cddceb" font-family="Menlo, monospace" font-size="13">approval-acts.png</text>
<rect x="316" y="956" width="280" height="164" fill="#0d1720" stroke="#0096d2" stroke-width="1"/>
<image href="/Users/wiki/Documents/GitHub/viden/docs/viden-design/Viden/screenshots/approval2.png" x="316" y="956" width="280" height="164" preserveAspectRatio="xMidYMid meet"/>
<text x="320" y="1137" fill="#cddceb" font-family="Menlo, monospace" font-size="13">approval2.png</text>
<rect x="614" y="956" width="280" height="164" fill="#0d1720" stroke="#0096d2" stroke-width="1"/>
<image href="/Users/wiki/Documents/GitHub/viden/docs/viden-design/Viden/screenshots/aspect-titlebars.png" x="614" y="956" width="280" height="164" preserveAspectRatio="xMidYMid meet"/>
<text x="618" y="1137" fill="#cddceb" font-family="Menlo, monospace" font-size="13">aspect-titlebars.png</text>
<rect x="18" y="1184" width="280" height="164" fill="#0d1720" stroke="#0096d2" stroke-width="1"/>
<image href="/Users/wiki/Documents/GitHub/viden/docs/viden-design/Viden/screenshots/b-default.png" x="18" y="1184" width="280" height="164" preserveAspectRatio="xMidYMid meet"/>
<text x="22" y="1365" fill="#cddceb" font-family="Menlo, monospace" font-size="13">b-default.png</text>
<rect x="316" y="1184" width="280" height="164" fill="#0d1720" stroke="#0096d2" stroke-width="1"/>
<image href="/Users/wiki/Documents/GitHub/viden/docs/viden-design/Viden/screenshots/b-lanes.png" x="316" y="1184" width="280" height="164" preserveAspectRatio="xMidYMid meet"/>
<text x="320" y="1365" fill="#cddceb" font-family="Menlo, monospace" font-size="13">b-lanes.png</text>
<rect x="614" y="1184" width="280" height="164" fill="#0d1720" stroke="#0096d2" stroke-width="1"/>
<image href="/Users/wiki/Documents/GitHub/viden/docs/viden-design/Viden/screenshots/borrow-glymap.png" x="614" y="1184" width="280" height="164" preserveAspectRatio="xMidYMid meet"/>
<text x="618" y="1365" fill="#cddceb" font-family="Menlo, monospace" font-size="13">borrow-glymap.png</text>
<rect x="18" y="1412" width="280" height="164" fill="#0d1720" stroke="#0096d2" stroke-width="1"/>
<image href="/Users/wiki/Documents/GitHub/viden/docs/viden-design/Viden/screenshots/cockpit-clip.png" x="18" y="1412" width="280" height="164" preserveAspectRatio="xMidYMid meet"/>
<text x="22" y="1593" fill="#cddceb" font-family="Menlo, monospace" font-size="13">cockpit-clip.png</text>
<rect x="316" y="1412" width="280" height="164" fill="#0d1720" stroke="#0096d2" stroke-width="1"/>
<image href="/Users/wiki/Documents/GitHub/viden/docs/viden-design/Viden/screenshots/cockpit-final.png" x="316" y="1412" width="280" height="164" preserveAspectRatio="xMidYMid meet"/>
<text x="320" y="1593" fill="#cddceb" font-family="Menlo, monospace" font-size="13">cockpit-final.png</text>
<rect x="614" y="1412" width="280" height="164" fill="#0d1720" stroke="#0096d2" stroke-width="1"/>
<image href="/Users/wiki/Documents/GitHub/viden/docs/viden-design/Viden/screenshots/cockpit-full-closed.png" x="614" y="1412" width="280" height="164" preserveAspectRatio="xMidYMid meet"/>
<text x="618" y="1593" fill="#cddceb" font-family="Menlo, monospace" font-size="13">cockpit-full-closed.png</text>
<rect x="18" y="1640" width="280" height="164" fill="#0d1720" stroke="#0096d2" stroke-width="1"/>
<image href="/Users/wiki/Documents/GitHub/viden/docs/viden-design/Viden/screenshots/cockpit-full-open.png" x="18" y="1640" width="280" height="164" preserveAspectRatio="xMidYMid meet"/>
<text x="22" y="1821" fill="#cddceb" font-family="Menlo, monospace" font-size="13">cockpit-full-open.png</text>
<rect x="316" y="1640" width="280" height="164" fill="#0d1720" stroke="#0096d2" stroke-width="1"/>
<image href="/Users/wiki/Documents/GitHub/viden/docs/viden-design/Viden/screenshots/cockpit-lean-full.png" x="316" y="1640" width="280" height="164" preserveAspectRatio="xMidYMid meet"/>
<text x="320" y="1821" fill="#cddceb" font-family="Menlo, monospace" font-size="13">cockpit-lean-full.png</text>
<rect x="614" y="1640" width="280" height="164" fill="#0d1720" stroke="#0096d2" stroke-width="1"/>
<image href="/Users/wiki/Documents/GitHub/viden/docs/viden-design/Viden/screenshots/cockpit-lean.png" x="614" y="1640" width="280" height="164" preserveAspectRatio="xMidYMid meet"/>
<text x="618" y="1821" fill="#cddceb" font-family="Menlo, monospace" font-size="13">cockpit-lean.png</text>
</svg>